<svg width="12" height="8" viewBox="0 0 12 8" fill="none" xmlns="http://www.w3.org/2000/svg">
<path d="M0.601222 4.56529H9.56578L7.21955 6.91152C6.98493 7.14614 6.98493 7.52252 7.21955 7.75714C7.33686 7.87445 7.48839 7.93311 7.64481 7.93311C7.80122 7.93311 7.95275 7.87445 8.07006 7.75714L11.4379 4.38932C11.6725 4.15469 11.6725 3.77832 11.4379 3.5437L8.07006 0.175876C7.83544 -0.0587474 7.45906 -0.0587474 7.22444 0.175876C6.98982 0.410499 6.98982 0.786874 7.22444 1.0215L9.57067 3.36773H0.601222C0.268839 3.36773 0 3.63657 0 3.96895C0 4.30133 0.268839 4.56529 0.601222 4.56529Z" fill="white"/>
</svg>
