<?xml version="1.0" encoding="iso-8859-1"?>
<!-- Generator: Adobe Illustrator 22.1.0, SVG Export Plug-In . SVG Version: 6.00 Build 0)  -->
<svg version="1.1" xmlns="http://www.w3.org/2000/svg" xmlns:xlink="http://www.w3.org/1999/xlink" x="0px" y="0px"
	 viewBox="0 0 50 50" style="enable-background:new 0 0 50 50;" xml:space="preserve">
	 <defs>
		<style>
		.co{
			fill:#4cbad8;
		}
		</style>
	</defs>
<g id="Layer_1" class="co">
	<path d="M37,10c0-1.859-1.28-3.411-3-3.858V1h-2v5.142C30.28,6.589,29,8.141,29,10c0,1.109,0.455,2.113,1.187,2.839L18.426,33H18
		V13V7V1H4v6v6v20H2v6h2v3.414l7,7l7-7V39h2v-4.73l11.922-20.437C32.267,13.931,32.624,14,33,14s0.733-0.069,1.078-0.166L46,34.271
		V49h2V33.729L35.813,12.839C36.545,12.113,37,11.109,37,10z M16,11H6V9h10V11z M6,3h10v4H6V3z M6,13h10v20H6V13z M7.414,43h7.172
		L11,46.586L7.414,43z M16,41H6v-2h10V41z M18,37H4v-2h14V37z M31,10c0-1.103,0.897-2,2-2s2,0.897,2,2s-0.897,2-2,2S31,11.103,31,10
		z"/>
</g>
<g>
</g>
</svg>
