<?xml version='1.0' encoding='iso-8859-1'?>
<svg version="1.1" xmlns="http://www.w3.org/2000/svg" viewBox="0 0 137.144 137.144" xmlns:xlink="http://www.w3.org/1999/xlink" enable-background="new 0 0 137.144 137.144">
  <defs>
    <style>
    .c{
      fill:red;
    }
    </style>
  </defs>
  <g>
    <g class="c">
      <path d="m109.715,0h-82.286c-15.149,0-27.429,12.281-27.429,27.429v82.287c0,15.148 12.28,27.428 27.429,27.428h82.286c15.148,0 27.429-12.28 27.429-27.428v-82.287c0-15.148-12.28-27.429-27.429-27.429zm13.715,102.858c0,11.362-9.21,20.572-20.572,20.572h-68.572c-11.361,0-20.571-9.21-20.571-20.572v-68.572c0-11.361 9.21-20.572 20.571-20.572h68.572c11.362,0 20.572,9.21 20.572,20.572v68.572zm-36.604-61.545l-18.254,18.254-18.255-18.254-9.127,9.127 18.254,18.254-18.254,18.254 9.127,9.126 18.254-18.253 18.254,18.253 9.127-9.126-18.253-18.254 18.254-18.254-9.127-9.127z"/>
    </g>
  </g>
</svg>
