<?xml version="1.0" encoding="UTF-8" standalone="no"?> <svg id="Layer_1" data-name="Layer 1" xmlns="http://www.w3.org/2000/svg" viewBox="0 0 128 128"><defs><style>.cls-1{fill:#4cbad8;}</style></defs><title>x</title><path class="cls-1" d="M64.00807,1.63046A62.3466,62.3466,0,0,0,27.76492,114.72921c.77384.56424,1.56383,1.09631,2.36995,1.62838a62.30716,62.30716,0,0,0,67.7464,0c.79-.51593,1.56383-1.048,2.33777-1.61224A62.3497,62.3497,0,0,0,64.00807,1.63046ZM98.70353,96.89782a7.43816,7.43816,0,0,0-3.85328-4.67554C87.88535,88.756,72.5852,83.613,72.5852,83.613V78.56665l.4192-.32247a14.64474,14.64474,0,0,0,5.56225-9.28652l.08059-.53207h.4192a5.66856,5.66856,0,0,0,5.22365-3.51467,6.16631,6.16631,0,0,0,.75771-2.98261,5.7538,5.7538,0,0,0-.38692-2.09589,3.002,3.002,0,0,0-1.14463-1.82184L82.1135,57.156l.35474-1.53165c2.54737-11.10827-6.062-21.12032-17.62178-21.39437-.29019-.01614-.56434-.01614-.8384-.01614s-.56424,0-.8384.01614c-11.55974.27405-20.16905,10.28611-17.62178,21.39437l.35474,1.53165-1.41878.85453a2.91065,2.91065,0,0,0-1.12859,1.82184,5.76943,5.76943,0,0,0-.40306,2.09589,6.18123,6.18123,0,0,0,.77384,2.98261,5.65178,5.65178,0,0,0,5.22374,3.51467h.40306l.09673.53207a14.62335,14.62335,0,0,0,5.54611,9.28652l.4191.32247V83.613s-15.284,5.14305-22.265,8.60931a7.414,7.414,0,0,0-3.83714,4.67554,47.85134,47.85134,0,1,1,69.39091,0Z"/></svg>