<svg id="svgView" xmlns="http://www.w3.org/2000/svg" xmlns:xlink="http://www.w3.org/1999/xlink" version="1.1" preserveAspectRatio="xMidYMid meet" viewBox="-225.75000000000014 -1235.8500000000001 451.5000000000003 367.7000000000004" width="100%" height="100%">
  <g stroke="#000000" stroke-width="0.3%" fill="grey" fill-opacity="0.5" transform="matrix(1,0,0,-1,0,0)">
  <path d="
            M -161.5, 1117
            a 11.5,11.5 0 1,0 23,0
            a 11.5,11.5 0 1,0 -23,0

            M -161.5, 1077
            a 11.5,11.5 0 1,0 23,0
            a 11.5,11.5 0 1,0 -23,0

            M -156, 977
            a 6,6 0 1,0 12,0
            a 6,6 0 1,0 -12,0

            M -56, 977
            a 6,6 0 1,0 12,0
            a 6,6 0 1,0 -12,0

            M 44, 977
            a 6,6 0 1,0 12,0
            a 6,6 0 1,0 -12,0

            M 144, 977
            a 6,6 0 1,0 12,0
            a 6,6 0 1,0 -12,0

            M -161.5, 1017
            a 11.5,11.5 0 1,0 23,0
            a 11.5,11.5 0 1,0 -23,0

            M -61.5, 1017
            a 11.5,11.5 0 1,0 23,0
            a 11.5,11.5 0 1,0 -23,0

            M 38.5, 1017
            a 11.5,11.5 0 1,0 23,0
            a 11.5,11.5 0 1,0 -23,0

            M 138.5, 1017
            a 11.5,11.5 0 1,0 23,0
            a 11.5,11.5 0 1,0 -23,0

            M -209, 1169
            a 2,2 0 1,0 4,0
            a 2,2 0 1,0 -4,0

            M -140, 1169
            a 2,2 0 1,0 4,0
            a 2,2 0 1,0 -4,0

            M -71, 1169
            a 2,2 0 1,0 4,0
            a 2,2 0 1,0 -4,0

            M -2, 1169
            a 2,2 0 1,0 4,0
            a 2,2 0 1,0 -4,0

            M 67, 1169
            a 2,2 0 1,0 4,0
            a 2,2 0 1,0 -4,0

            M 136, 1169
            a 2,2 0 1,0 4,0
            a 2,2 0 1,0 -4,0

            M 205, 1169
            a 2,2 0 1,0 4,0
            a 2,2 0 1,0 -4,0

            M -209, 1091
            a 2,2 0 1,0 4,0
            a 2,2 0 1,0 -4,0

            M -209, 1013
            a 2,2 0 1,0 4,0
            a 2,2 0 1,0 -4,0

            M -209, 935
            a 2,2 0 1,0 4,0
            a 2,2 0 1,0 -4,0

            M 205, 935
            a 2,2 0 1,0 4,0
            a 2,2 0 1,0 -4,0

            M 136, 935
            a 2,2 0 1,0 4,0
            a 2,2 0 1,0 -4,0

            M 67, 935
            a 2,2 0 1,0 4,0
            a 2,2 0 1,0 -4,0

            M -2, 935
            a 2,2 0 1,0 4,0
            a 2,2 0 1,0 -4,0

            M -71, 935
            a 2,2 0 1,0 4,0
            a 2,2 0 1,0 -4,0

            M -140, 935
            a 2,2 0 1,0 4,0
            a 2,2 0 1,0 -4,0

            M 205, 1013
            a 2,2 0 1,0 4,0
            a 2,2 0 1,0 -4,0

            M 205, 1091
            a 2,2 0 1,0 4,0
            a 2,2 0 1,0 -4,0
  
            M207,1177L-207,1177
            A 8 8 0 0 1 -215 1169
            L-215,935
            A 8 8 0 0 1 -207 927
            L207,927
            A 8 8 0 0 1 215 935
            L215,1169
            A 8 8 0 0 1 207 1177
            M-46.25,1143.25L46.25,1143.25
            L46.25,1050.75
            L-46.25,1050.75
            L-46.25,1143.25
            "></path>
        <path d="M128.4367798158209,1114.264811811983L132.9367798158209,1114.264811811983"></path>
        <path d="M132.9367798158209,1114.264811811983L132.9367798158209,1130.264811811983"></path>
        <path d="M132.9367798158209,1130.264811811983L98.93677981582096,1130.264811811983"></path>
        <path d="M98.93677981582096,1130.264811811983L98.93677981582096,1065.764811811983"></path>
        <path d="M98.93677981582096,1065.764811811983L130.9367798158209,1065.764811811983"></path>
        <path d="M130.9367798158209,1065.764811811983L143.3111484865854,1078.139180482747"></path>
        <path d="M143.3111484865854,1078.139180482747L143.3111484865854,1088.639180482747"></path>
        <path d="M143.3111484865854,1088.639180482747L130.9367798158209,1101.013549153512"></path>
        <path d="M130.9367798158209,1101.013549153512L103.4367798158209,1101.013549153512"></path>
        <path d="M103.4367798158209,1101.013549153512L103.4367798158209,1125.013549153512"></path>
        <path d="M103.4367798158209,1125.013549153512L128.4367798158209,1125.013549153512"></path>
        <path d="M128.4367798158209,1125.013549153512L128.4367798158209,1114.264811811983"></path>
        <path d="M103.4367798158209,1070.893909760979L103.4367798158209,1093.902668073916"></path>
        <path d="M103.4367798158209,1093.902668073916L128.7014040912454,1093.902668073916"></path>
        <path d="M128.7014040912454,1093.902668073916L134.9180048866291,1087.686067278532"></path>
        <path d="M134.9180048866291,1087.686067278532L134.9180048866291,1077.110510556363"></path>
        <path d="M134.9180048866291,1077.110510556363L128.7014040912454,1070.893909760979"></path>
        <path d="M128.7014040912454,1070.893909760979L103.4367798158209,1070.893909760979"></path>
  </g>
</svg>