<svg id="svgView" xmlns="http://www.w3.org/2000/svg" xmlns:xlink="http://www.w3.org/1999/xlink" version="1.1" preserveAspectRatio="xMidYMid meet" viewBox="-225.75000000000014 -1235.8500000000001 451.5000000000003 367.7000000000004" width="100%" height="100%">
<g stroke="#000000" stroke-width="0.3%" fill="none" transform="matrix(1,0,0,-1,0,0)">
    <circle cx="-150" cy="1117" r="11.49999999999986"></circle>
    <circle cx="-150" cy="1077" r="11.49999999999986"></circle>
    <circle cx="-150" cy="977" r="6.000000000000027"></circle>
    <circle cx="-50" cy="977" r="6.000000000000021"></circle>
    <circle cx="50" cy="977" r="6.000000000000027"></circle>
    <circle cx="150" cy="977" r="6"></circle>
    <circle cx="-150" cy="1017" r="11.49999999999997"></circle>
    <circle cx="-50" cy="1017" r="11.49999999999996"></circle>
    <circle cx="50" cy="1017" r="11.49999999999995"></circle>
    <circle cx="150" cy="1017" r="11.49999999999994"></circle>
    <circle cx="-207" cy="1169" r="2"></circle>
    <circle cx="-138" cy="1169" r="2"></circle>
    <circle cx="-69" cy="1169" r="2"></circle>
    <circle cx="0" cy="1169" r="2.000000000000002"></circle>
    <circle cx="69" cy="1169" r="2.000000000000014"></circle>
    <circle cx="138" cy="1169" r="2"></circle>
    <circle cx="207" cy="1169" r="2"></circle>
    <circle cx="-207" cy="1091" r="2"></circle>
    <circle cx="-207" cy="1013" r="2"></circle>
    <circle cx="-207" cy="935" r="2"></circle>
    <circle cx="207" cy="935" r="2.000000000000824"></circle>
    <circle cx="138" cy="935" r="2"></circle>
    <circle cx="69" cy="935" r="2"></circle>
    <circle cx="0" cy="935" r="2.000000000000002"></circle>
    <circle cx="-69" cy="935" r="2.000000000000014"></circle>
    <circle cx="-138" cy="935" r="2"></circle>
    <circle cx="207" cy="1013" r="2"></circle>
    <circle cx="207" cy="1091" r="2"></circle>

    <path d="M207,1177L-207,1177"></path>
    <path d="M -207 1177 A 8 8 0 0 1 -215 1169"></path>
    <path d="M-215,1169L-215,935"></path>
    <path d="M -215.0000000000001 935 A 8.000000000000114 8.000000000000114 0 0 1 -207 926.9999999999999"></path>
    <path d="M-207,927L207,927"></path>
    <path d="M 207 926.9999999999999 A 8.000000000000114 8.000000000000114 0 0 1 215.0000000000001 935"></path>
    <path d="M215,935L215,1169"></path>
    <path d="M 215 1169 A 8 8 0 0 1 207 1177"></path>
    <path d="M-46.25,1143.25L46.25,1143.25"></path>
    <path d="M46.25,1143.25L46.25,1050.75"></path>
    <path d="M46.25,1050.75L-46.25,1050.75"></path>
    <path d="M-46.25,1050.75L-46.25,1143.25"></path>

    <g stroke="rgb(255, 0, 0)">
        <path d="M128.4367798158209,1114.264811811983L132.9367798158209,1114.264811811983"></path>
        <path d="M132.9367798158209,1114.264811811983L132.9367798158209,1130.264811811983"></path>
        <path d="M132.9367798158209,1130.264811811983L98.93677981582096,1130.264811811983"></path>
        <path d="M98.93677981582096,1130.264811811983L98.93677981582096,1065.764811811983"></path>
        <path d="M98.93677981582096,1065.764811811983L130.9367798158209,1065.764811811983"></path>
        <path d="M130.9367798158209,1065.764811811983L143.3111484865854,1078.139180482747"></path>
        <path d="M143.3111484865854,1078.139180482747L143.3111484865854,1088.639180482747"></path>
        <path d="M143.3111484865854,1088.639180482747L130.9367798158209,1101.013549153512"></path>
        <path d="M130.9367798158209,1101.013549153512L103.4367798158209,1101.013549153512"></path>
        <path d="M103.4367798158209,1101.013549153512L103.4367798158209,1125.013549153512"></path>
        <path d="M103.4367798158209,1125.013549153512L128.4367798158209,1125.013549153512"></path>
        <path d="M128.4367798158209,1125.013549153512L128.4367798158209,1114.264811811983"></path>
        <path d="M103.4367798158209,1070.893909760979L103.4367798158209,1093.902668073916"></path>
        <path d="M103.4367798158209,1093.902668073916L128.7014040912454,1093.902668073916"></path>
        <path d="M128.7014040912454,1093.902668073916L134.9180048866291,1087.686067278532"></path>
        <path d="M134.9180048866291,1087.686067278532L134.9180048866291,1077.110510556363"></path>
        <path d="M134.9180048866291,1077.110510556363L128.7014040912454,1070.893909760979"></path>
        <path d="M128.7014040912454,1070.893909760979L103.4367798158209,1070.893909760979"></path>
    </g>
</g>
</svg>