0
SECTION
2
HEADER
9
$EXTMIN
10
0.000000
20
0.000000
9
$EXTMAX
10
48.000000
20
48.000000
0
ENDSEC
0
SECTION
2
TABLES
0
TABLE
2
LTYPE
70
1
0
LTYPE
2
0
70
0
3
Solid Line
72
65
73
0
40
0.0
0
ENDTAB
0
TABLE
2
LAYER
70
1
0
LAYER
2
1
70
0
62
7
6
0
0
ENDTAB
0
ENDSEC
0
SECTION
2
BLOCKS
0
ENDSEC
0
SECTION
2
ENTITIES
0
ARC
8
1
10
-15.522315
20
12.447494
40
1.634534
50
-93.669076
51
-85.783049
0
ARC
8
1
10
-15.661783
20
10.964025
40
0.079953
50
131.933769
51
-174.936120
0
ARC
8
1
10
-15.476179
20
10.945129
40
0.112567
50
140.098340
51
-179.808741
0
ARC
8
1
10
-15.349010
20
10.950534
40
0.089780
50
132.900244
51
-174.353838
0
ARC
8
1
10
-15.805209
20
11.533288
40
0.051707
50
166.608868
51
-115.321091
0
LINE
8
1
10
-15.827324
20
11.486548
11
-15.823704
21
11.482259
0
ARC
8
1
10
-15.896357
20
11.510011
40
0.077773
50
-20.905856
51
47.455413
0
ARC
8
1
10
-15.806488
20
11.533349
40
0.050431
50
137.667927
51
157.741855
0
LINE
8
1
10
-15.853161
20
11.552451
11
-15.842556
21
11.537630
0
ARC
8
1
10
-15.673545
20
11.426143
40
0.096879
50
-63.618324
51
-42.310148
0
ARC
8
1
10
-15.398576
20
11.573098
40
0.293866
50
-174.363983
51
-133.780825
0
ARC
8
1
10
-15.640360
20
11.535485
40
0.051412
50
34.271070
51
170.197652
0
ARC
8
1
10
-15.760050
20
11.390065
40
0.238131
50
18.497714
51
47.075179
0
ARC
8
1
10
-15.604879
20
11.457773
40
0.071092
50
-8.907095
51
6.333911
0
ARC
8
1
10
-15.707513
20
11.285056
40
0.133143
50
-58.387092
51
-22.746361
0
ARC
8
1
10
-16.104237
20
11.436960
40
0.673779
50
-23.012452
51
-1.455364
0
ARC
8
1
10
-15.263704
20
11.391739
40
0.169321
50
131.196000
51
170.444193
0
ARC
8
1
10
-15.332012
20
11.402737
40
0.124171
50
49.411973
51
110.365683
0
ARC
8
1
10
-15.109613
20
11.751961
40
0.291619
50
-119.051962
51
-110.431566
0
ARC
8
1
10
-15.453262
20
12.210561
40
1.232877
50
-81.113646
51
-70.901311
0
ARC
8
1
10
-15.257897
20
11.005039
40
0.013485
50
130.393401
51
-111.380791
0
ARC
8
1
10
-15.507162
20
11.145523
40
0.273511
50
-28.429797
51
13.201557
0
ARC
8
1
10
-15.183834
20
11.200864
40
0.057488
50
120.726740
51
172.882524
0
ARC
8
1
10
-15.424621
20
11.435019
40
0.280755
50
-41.147604
51
-21.545315
0
ARC
8
1
10
-15.152317
20
11.318750
40
0.017262
50
31.162453
51
130.303272
0
ARC
8
1
10
-15.719231
20
10.424067
40
1.074653
50
45.800563
51
57.229425
0
ARC
8
1
10
-14.753759
20
11.479024
40
0.357385
50
-127.239071
51
-109.518413
0
ARC
8
1
10
-14.883451
20
11.130187
40
0.015797
50
-83.253384
51
49.372442
0
ARC
8
1
10
-15.514883
20
12.420597
40
1.451532
50
-70.989417
51
-64.132654
0
LINE
8
1
10
-15.042057
20
11.048234
11
-15.063766
21
11.116520
0
ARC
8
1
10
-14.488455
20
11.861773
40
0.690878
50
-126.464334
51
-113.034826
0
ARC
8
1
10
-34.122765
20
-35.639343
40
50.827716
50
67.509070
51
67.667234
0
ARC
8
1
10
-14.250929
20
12.515656
40
1.160472
50
-117.590615
51
-105.974459
0
ARC
8
1
10
-11.895138
20
19.674980
40
8.593477
50
-109.044424
51
-107.546312
0
ARC
8
1
10
-15.151854
20
10.968111
40
0.845616
50
87.610139
51
100.670068
0
ARC
8
1
10
-15.162143
20
11.272651
40
0.710238
50
79.576884
51
98.278962
0
ARC
8
1
10
-15.558629
20
12.027937
40
0.052876
50
-69.777895
51
-91.020002
0
LINE
8
1
10
-15.540352
20
11.978320
11
-15.559929
21
12.030931
0
ARC
8
1
10
-14.767212
20
10.895961
40
1.368450
50
101.379828
51
111.414652
0
ARC
8
1
10
-14.835463
20
11.576327
40
0.881789
50
99.545437
51
118.021183
0
ARC
8
1
10
-16.026943
20
13.818071
40
1.541850
50
-59.381842
51
-44.866559
0
ARC
8
1
10
-16.847935
20
14.783915
40
2.649959
50
-54.771811
51
-41.475071
0
ARC
8
1
10
-14.113100
20
11.715300
40
1.666148
50
130.251118
51
139.956913
0
ARC
8
1
10
-17.348236
20
14.057073
40
2.141229
50
-31.655712
51
-17.704641
0
ARC
8
1
10
-15.132607
20
12.763412
40
0.428138
50
156.617485
51
-142.926943
0
ARC
8
1
10
-16.073189
20
12.155166
40
0.693820
50
10.653133
51
30.309429
0
ARC
8
1
10
-16.830128
20
13.794562
40
1.428174
50
-32.605789
51
-10.222662
0
ARC
8
1
10
-15.820131
20
13.897650
40
1.105168
50
-49.127071
51
-31.157879
0
ARC
8
1
10
-16.773237
20
14.688664
40
2.181143
50
-45.551790
51
-31.041996
0
ARC
8
1
10
-17.714582
20
14.923068
40
2.964441
50
-31.683535
51
-21.296037
0
ARC
8
1
10
-4.589447
20
9.130977
40
11.530168
50
155.070434
51
157.519401
0
ARC
8
1
10
-18.559778
20
15.282502
40
3.569062
50
-20.978798
51
-10.149374
0
ARC
8
1
10
-15.084961
20
14.651003
40
0.038481
50
3.839577
51
98.534133
0
ARC
8
1
10
-15.492943
20
11.885558
40
2.832214
50
81.834423
51
89.008681
0
ARC
8
1
10
-15.431605
20
14.681802
40
0.037627
50
109.141256
51
-143.318014
0
ARC
8
1
10
-16.935987
20
14.145296
40
1.561253
50
-2.703832
51
19.222713
0
LINE
8
1
10
-15.376472
20
14.071647
11
-15.374088
21
13.671733
0
ARC
8
1
10
-18.508595
20
15.248925
40
3.508941
50
-26.710209
51
-20.849109
0
LINE
8
1
10
-15.229416
20
14.000065
11
-15.296757
21
14.022974
0
ARC
8
1
10
-17.184019
20
14.162481
40
1.185909
50
-13.763371
51
-4.273653
0
ARC
8
1
10
-16.134939
20
14.070714
40
0.216347
50
-61.636823
51
-37.077707
0
ARC
8
1
10
-15.938140
20
13.905997
40
0.041959
50
-17.354723
51
125.211894
0
ARC
8
1
10
-17.291588
20
14.005278
40
1.397975
50
-26.748135
51
-4.586855
0
ARC
8
1
10
-16.033092
20
13.375123
40
0.010159
50
174.527027
51
-52.744950
0
ARC
8
1
10
-8.672279
20
6.259100
40
10.228092
50
135.150877
51
135.977344
0
ARC
8
1
10
-15.902528
20
13.436459
40
0.041675
50
-17.997521
51
120.457365
0
ARC
8
1
10
-16.644072
20
13.562343
40
0.793408
50
-37.186505
51
-10.072366
0
ARC
8
1
10
-15.997248
20
13.080317
40
0.014946
50
170.442707
51
-42.393211
0
ARC
8
1
10
-15.854833
20
12.851129
40
0.255480
50
94.030863
51
120.946514
0
ARC
8
1
10
-15.879478
20
13.068517
40
0.038052
50
-21.040088
51
79.878305
0
ARC
8
1
10
-17.055786
20
13.321481
40
1.240807
50
-31.291527
51
-12.408521
0
ARC
8
1
10
-15.921237
20
12.442393
40
0.246085
50
78.660759
51
107.557560
0
ARC
8
1
10
-15.891925
20
12.649187
40
0.039410
50
-38.531404
51
61.056360
0
ARC
8
1
10
-16.568901
20
12.889049
40
0.755581
50
-27.095131
51
-20.483964
0
ARC
8
1
10
-15.882643
20
12.333435
40
0.211907
50
70.261824
51
93.680078
0
ARC
8
1
10
-15.844838
20
12.496292
40
0.049793
50
-28.707762
51
47.309899
0
ARC
8
1
10
-16.146448
20
12.575125
40
0.360246
50
-25.161452
51
-16.572093
0
ARC
8
1
10
-15.814543
20
12.219357
40
0.202687
50
72.369842
51
91.651711
0
LINE
8
1
10
-15.753155
20
12.412523
11
-15.750973
21
14.041630
0
ARC
8
1
10
-13.939960
20
14.112288
40
1.812391
50
161.669338
51
-177.765700
0
ARC
8
1
10
-15.697080
20
14.682801
40
0.036698
50
-0.805545
51
97.176171
0
ARC
8
1
10
-15.556091
20
11.261034
40
3.461240
50
92.410451
51
100.531584
0
ARC
8
1
10
-16.177088
20
14.641978
40
0.024880
50
117.896012
51
-164.820577
0
ARC
8
1
10
-17.349712
20
14.290764
40
1.199220
50
-0.684436
51
16.704551
0
ARC
8
1
10
-16.861801
20
14.301074
40
0.711650
50
-6.751804
51
-1.983814
0
ARC
8
1
10
-16.468636
20
14.438787
40
0.383826
50
-35.223989
51
-5.609254
0
ARC
8
1
10
-16.056849
20
14.387954
40
0.032639
50
-1.326070
51
155.919879
0
ARC
8
1
10
-17.090593
20
14.152307
40
1.091937
50
-3.806156
51
12.422262
0
LINE
8
1
10
-16.001064
20
14.079823
11
-15.931324
21
14.075773
0
ARC
8
1
10
-18.107351
20
14.582983
40
1.967184
50
-26.133406
51
-14.539555
0
ARC
8
1
10
-19.361526
20
15.014221
40
3.484502
50
-28.718486
51
-20.866919
0
ARC
8
1
10
-17.217022
20
13.741328
40
1.195018
50
-40.302194
51
-23.855054
0
ARC
8
1
10
-17.438610
20
13.705859
40
1.529804
50
-38.692250
51
-28.877086
0
ARC
8
1
10
-16.267532
20
12.711366
40
0.224588
50
-51.431838
51
-34.434643
0
ARC
8
1
10
-16.105078
20
12.544942
40
0.154502
50
-69.906484
51
-36.158734
0
ARC
8
1
10
-15.975989
20
12.332626
40
0.104050
50
-69.615560
51
-10.552523
0
ARC
8
1
10
-17.345934
20
13.328876
40
0.856735
50
15.479155
51
27.072819
0
ARC
8
1
10
-16.517744
20
13.668954
40
0.082171
50
57.060962
51
142.658493
0
ARC
8
1
10
-18.096535
20
14.415398
40
1.759158
50
-22.651031
51
6.325902
0
ARC
8
1
10
-16.373081
20
14.599174
40
0.026940
50
21.914022
51
99.601694
0
ARC
8
1
10
-15.581254
20
11.198673
40
3.518365
50
103.081252
51
116.327168
0
ARC
8
1
10
-16.975870
20
14.131536
40
0.275911
50
126.926851
51
175.255267
0
ARC
8
1
10
-9.805834
20
13.237696
40
7.501221
50
172.980800
51
-167.631246
0
ARC
8
1
10
-12.998692
20
12.792064
40
4.294220
50
-164.312037
51
-130.558236
0
ARC
8
1
10
-15.788442
20
9.540636
40
0.011352
50
-102.414467
51
55.809293
0
ARC
8
1
10
-15.549418
20
9.658394
40
0.256645
50
120.433902
51
-155.023425
0
ARC
8
1
10
-15.708592
20
9.909472
40
0.041698
50
-45.605080
51
2.970706
0
LINE
8
1
10
-15.666950
20
9.911633
11
-15.765621
21
10.787288
0
ARC
8
1
10
-15.814796
20
10.785244
40
0.049218
50
2.379843
51
86.013411
0
ARC
8
1
10
-15.546323
20
12.357822
40
1.546364
50
-116.680738
51
-99.869414
0
ARC
8
1
10
-16.205654
20
11.046154
40
0.078307
50
66.510503
51
-116.560991
0
ARC
8
1
10
-15.535562
20
12.471683
40
1.496897
50
-115.264868
51
-103.483811
0
ARC
8
1
10
-15.765567
20
10.997023
40
0.120538
50
102.769684
51
170.919315
0
ARC
8
1
10
-16.490355
20
13.183119
40
2.183177
50
-71.350141
51
-70.310994
0
LINE
8
1
10
-15.754810
20
11.127581
11
-15.757534
21
11.334003
0
ARC
8
1
10
-15.677245
20
11.479501
40
0.166180
50
-141.759424
51
-118.890956
0
LINE
8
1
10
-15.807766
20
11.376641
11
-15.810902
21
11.378079
0
ARC
8
1
10
-15.816137
20
11.580430
40
0.202418
50
-119.785927
51
-88.517842
0
ARC
8
1
10
-15.682532
20
11.658227
40
0.345078
50
-161.972496
51
-132.731735
0
LINE
8
1
10
-16.010670
20
11.551435
11
-16.014816
21
11.556303
0
ARC
8
1
10
-15.975952
20
11.722118
40
0.170309
50
-134.836652
51
-103.190989
0
ARC
8
1
10
-16.061970
20
11.621468
40
0.039563
50
101.964339
51
-149.434173
0
ARC
8
1
10
-16.164669
20
12.078908
40
0.429267
50
-77.282896
51
-70.988741
0
ARC
8
1
10
-16.034588
20
11.683942
40
0.014617
50
-48.139213
51
25.755861
0
ARC
8
1
10
-15.716424
20
11.693536
40
0.305017
50
130.051062
51
-179.390898
0
ARC
8
1
10
-8.478973
20
18.030258
40
9.618198
50
-146.327323
51
-140.613277
0
ARC
8
1
10
-16.144636
20
12.885919
40
0.387666
50
168.614405
51
-150.915013
0
LINE
8
1
10
-16.524673
20
12.962448
11
-16.520191
21
13.052013
0
ARC
8
1
10
-16.970425
20
13.132799
40
0.457424
50
-10.172381
51
-2.508279
0
LINE
8
1
10
-16.513439
20
13.112781
11
-16.513287
21
13.119750
0
LINE
8
1
10
-16.513287
20
13.119750
11
-16.515938
21
13.127774
0
LINE
8
1
10
-16.515938
20
13.127774
11
-16.508923
21
13.153488
0
ARC
8
1
10
-19.412859
20
13.446089
40
2.918640
50
-5.753703
51
-3.563813
0
ARC
8
1
10
-15.976347
20
13.242477
40
0.523986
50
170.554714
51
177.573078
0
ARC
8
1
10
-17.202742
20
13.360570
40
0.710239
50
-2.590713
51
15.629388
0
LINE
8
1
10
-16.518764
20
13.551918
11
-16.579647
21
13.535974
0
ARC
8
1
10
-15.757735
20
14.025070
40
1.118935
50
-31.032706
51
-22.528286
0
ARC
8
1
10
-14.760917
20
13.549215
40
0.107911
50
-110.637353
51
-68.962778
0
ARC
8
1
10
-14.720278
20
13.408056
40
0.040485
50
-24.198329
51
92.692220
0
ARC
8
1
10
-15.589932
20
13.551607
40
0.920619
50
-26.413407
51
-10.017820
0
LINE
8
1
10
-14.765419
20
13.142075
11
-14.766071
21
13.134823
0
ARC
8
1
10
-14.728260
20
13.219652
40
0.092875
50
-114.024134
51
-34.709962
0
ARC
8
1
10
-14.631351
20
13.131145
40
0.041131
50
-41.735808
51
119.993364
0
ARC
8
1
10
-15.289892
20
13.455744
40
0.773908
50
-53.306288
51
-27.052643
0
ARC
8
1
10
-14.818498
20
12.833225
40
0.009170
50
167.610153
51
-66.167596
0
ARC
8
1
10
-14.785284
20
13.233616
40
0.409842
50
-94.128863
51
-68.865522
0
ARC
8
1
10
-14.639257
20
12.821106
40
0.030286
50
-49.487547
51
86.696469
0
ARC
8
1
10
-14.988274
20
13.078656
40
0.463309
50
-65.496387
51
-37.271359
0
ARC
8
1
10
-14.679009
20
12.465862
40
0.224224
50
121.485001
51
140.819124
0
ARC
8
1
10
-14.689033
20
12.960289
40
0.388936
50
-114.904688
51
-91.192138
0
ARC
8
1
10
-14.714286
20
12.535477
40
0.039845
50
-77.050401
51
64.488012
0
ARC
8
1
10
-15.071879
20
13.406178
40
0.980608
50
-76.183421
51
-68.051625
0
ARC
8
1
10
-14.828904
20
12.448826
40
0.010173
50
149.793433
51
-81.151343
0
ARC
8
1
10
-14.634983
20
12.866978
40
0.469425
50
-114.190351
51
-99.930683
0
ARC
8
1
10
-14.735217
20
12.377798
40
0.033004
50
-64.139826
51
54.258311
0
ARC
8
1
10
-15.179084
20
12.972061
40
0.774166
50
-68.220909
51
-53.704979
0
ARC
8
1
10
-14.882519
20
12.249737
40
0.009933
50
159.879186
51
-90.792131
0
ARC
8
1
10
-14.624900
20
12.676697
40
0.507261
50
-120.539595
51
-103.815165
0
ARC
8
1
10
-14.764246
20
12.162610
40
0.028180
50
-71.798663
51
49.725952
0
ARC
8
1
10
-14.922837
20
12.389998
40
0.304331
50
-87.017285
51
-56.630377
0
ARC
8
1
10
-14.899619
20
12.078563
40
0.010536
50
134.482907
51
-88.158741
0
ARC
8
1
10
-14.718906
20
12.398416
40
0.376415
50
-118.632445
51
-102.787309
0
ARC
8
1
10
-14.816412
20
12.007537
40
0.027710
50
-77.206395
51
59.190116
0
ARC
8
1
10
-15.097173
20
12.596951
40
0.679928
50
-73.570512
51
-65.042131
0
LINE
8
1
10
-14.904865
20
11.944785
11
-14.908287
21
11.939085
0
LINE
8
1
10
-14.908287
20
11.939085
11
-14.908970
21
11.932470
0
ARC
8
1
10
-14.759280
20
12.015931
40
0.171385
50
-150.857755
51
-121.781215
0
ARC
8
1
10
-14.872788
20
11.854840
40
0.027884
50
-74.012881
51
33.530823
0
ARC
8
1
10
-14.980473
20
12.001613
40
0.208419
50
-88.521184
51
-56.391079
0
ARC
8
1
10
-14.958657
20
11.766861
40
0.031101
50
121.903882
51
-110.054101
0
ARC
8
1
10
-14.881840
20
11.926200
40
0.207861
50
-114.889557
51
-80.207068
0
ARC
8
1
10
-14.838183
20
11.404920
40
0.316557
50
52.202996
51
91.502756
0
ARC
8
1
10
-14.558645
20
11.855669
40
0.218083
50
-113.091237
51
-84.601593
0
ARC
8
1
10
-14.554110
20
11.535842
40
0.103948
50
39.989042
51
81.155840
0
LINE
8
1
10
-14.474468
20
11.602643
11
-14.470745
21
11.600645
0
LINE
8
1
10
-14.470745
20
11.600645
11
-14.466831
21
11.599070
0
ARC
8
1
10
-14.468791
20
11.440050
40
0.159032
50
56.968526
51
89.293904
0
ARC
8
1
10
-14.355733
20
11.663274
40
0.093684
50
-106.348460
51
-67.156074
0
ARC
8
1
10
-14.317498
20
11.544000
40
0.032991
50
-11.142323
51
93.239729
0
ARC
8
1
10
-14.400674
20
11.533957
40
0.115603
50
-69.600016
51
1.818183
0
ARC
8
1
10
-14.448760
20
11.450214
40
0.091744
50
-90.353182
51
-15.559658
0
ARC
8
1
10
-14.522634
20
11.355046
40
0.073388
50
-101.616429
51
2.675420
0
ARC
8
1
10
-14.602614
20
11.257072
40
0.070230
50
-91.896449
51
21.807621
0
LINE
8
1
10
-14.604939
20
11.186882
11
-14.606869
21
11.183134
0
ARC
8
1
10
-14.811310
20
11.131877
40
0.210769
50
-10.672655
51
14.074975
0
ARC
8
1
10
-14.647094
20
11.178995
40
0.096245
50
-85.866165
51
-63.525081
0
ARC
8
1
10
-15.527083
20
12.337383
40
1.536267
50
-79.506906
51
-54.737289
0
ARC
8
1
10
-15.217961
20
10.786357
40
0.049971
50
125.956383
51
171.675823
0
LINE
8
1
10
-15.267406
20
10.793591
11
-15.425030
21
9.903557
0
ARC
8
1
10
-15.361320
20
9.912333
40
0.064312
50
-172.156347
51
-115.305356
0
ARC
8
1
10
-15.553658
20
9.656958
40
0.257054
50
-25.503510
51
50.111254
0
ARC
8
1
10
-15.308537
20
9.546942
40
0.013131
50
-177.106626
51
-28.282999
0
ARC
8
1
10
-17.745825
20
12.524501
40
3.860028
50
-50.623565
51
-14.618446
0
LINE
8
1
10
-14.010754
20
11.550303
11
-13.999306
21
11.590168
0
LINE
8
1
10
-13.999306
20
11.590168
11
-13.988316
21
11.630160
0
ARC
8
1
10
-21.259405
20
13.229634
40
7.444935
50
-12.406172
51
7.468908
0
ARC
8
1
10
-14.145347
20
14.130805
40
0.275866
50
13.966730
51
55.316044
0
ARC
8
1
10
-15.579523
20
11.062992
40
3.658765
50
64.221743
51
78.754149
0
ARC
8
1
10
-14.867961
20
14.615213
40
0.036346
50
86.897054
51
168.310017
0
LINE
8
1
10
-14.903553
20
14.622578
11
-14.906185
21
14.592209
0
ARC
8
1
10
-17.321005
20
14.784593
40
2.422471
50
-15.341798
51
-4.555017
0
ARC
8
1
10
-11.867577
20
11.438431
40
4.127437
50
136.602977
51
139.047980
0
ARC
8
1
10
-14.845065
20
14.239434
40
0.040891
50
-30.713043
51
121.804384
0
ARC
8
1
10
-16.397205
20
14.625334
40
1.638591
50
-22.373304
51
-14.374119
0
LINE
8
1
10
-14.881962
20
14.001621
11
-14.877743
21
14.004250
0
ARC
8
1
10
-14.569768
20
13.762036
40
0.391811
50
133.271454
51
141.815973
0
ARC
8
1
10
-14.811991
20
13.997904
40
0.056000
50
-17.515725
51
118.064563
0
ARC
8
1
10
-17.298756
20
14.448294
40
2.582784
50
-16.770718
51
-10.422603
0
ARC
8
1
10
-14.599680
20
13.442192
40
0.345237
50
113.712787
51
130.922832
0
ARC
8
1
10
-14.730075
20
13.716098
40
0.043020
50
-24.846551
51
101.317901
0
ARC
8
1
10
-15.491411
20
13.902943
40
0.826192
50
-21.409953
51
-14.361065
0
LINE
8
1
10
-14.722233
20
13.601351
11
-14.648258
21
13.573015
0
ARC
8
1
10
-15.502194
20
8.932490
40
0.290606
50
-64.766600
51
-49.070374
0
ARC
8
1
10
-18.099224
20
12.544044
40
4.737836
50
-53.961358
51
-14.395122
0
ARC
8
1
10
-23.042721
20
13.383081
40
9.743616
50
-11.946419
51
7.280041
0
ARC
8
1
10
-13.735842
20
14.543800
40
0.365751
50
11.670164
51
55.413825
0
ARC
8
1
10
-15.574934
20
10.620749
40
4.693888
50
64.148699
51
94.026134
0
ARC
8
1
10
-15.536091
20
10.581572
40
4.735833
50
94.461638
51
115.784599
0
ARC
8
1
10
-17.388550
20
14.544790
40
0.365713
50
124.582700
51
175.213424
0
ARC
8
1
10
-8.049655
20
13.387944
40
9.775709
50
173.023594
51
-168.070068
0
ARC
8
1
10
-13.039052
20
12.538696
40
4.722782
50
-165.637164
51
-125.099099
0
ARC
8
1
10
-15.561357
20
9.045488
40
0.418120
50
-117.529646
51
-64.705906
0
LINE
8
1
10
-15.382710
20
8.667455
11
-15.339497
21
8.579483
0
ENDSEC
0
EOF
